<svg xmlns="http://www.w3.org/2000/svg" viewBox="0 0 72.3 59.9" width="24" height="24" role="img" aria-label="gear-verify"><path d="M34.1 7.9C34.0 9.0 33.8 10.1 33.7 11.3 M33.7 11.3C32.0 12.0 30.2 12.8 28.5 13.7 M28.5 13.7C27.5 12.9 26.5 12.1 25.5 11.4 M25.5 11.4C24.4 12.5 23.3 13.6 22.3 14.8 M22.3 14.8C23.1 15.7 23.8 16.6 24.6 17.5 M24.6 17.5C23.8 19.2 23.1 20.9 22.5 22.7 M22.5 22.7C21.2 22.8 19.8 23.0 18.5 23.2 M18.5 23.2C18.5 24.7 18.6 26.2 18.6 27.7 M18.6 27.7C19.8 28.0 21.1 28.2 22.4 28.5 M22.4 28.5C23.0 30.1 23.7 31.8 24.4 33.4 M24.4 33.4C23.7 34.5 22.7 35.4 22.4 36.6 M22.4 36.6C23.3 37.7 24.4 38.7 25.4 39.8 M25.4 39.8C26.4 38.9 27.5 38.0 28.5 37.1 M28.5 37.1C30.1 38.0 31.8 38.7 33.3 39.7 M33.3 39.7C33.6 40.9 33.8 42.1 34.0 43.3 M34.0 43.3C35.6 43.3 37.1 43.2 38.6 43.2 M38.6 43.2C38.7 41.9 38.8 40.7 38.9 39.4 M38.9 39.4C40.7 38.8 42.5 38.0 44.3 37.3 M44.3 37.3C44.9 37.9 46.1 39.1 46.8 39.7 M46.8 39.7C47.9 38.5 49.1 37.4 50.2 36.2 M50.2 36.2C49.4 35.3 48.6 34.3 48.0 33.2 M48.0 33.2C48.4 31.6 49.2 30.1 49.9 28.5 M49.9 28.5C51.2 28.2 52.5 28.0 53.8 27.7 M53.8 27.7C53.8 26.2 53.7 24.6 53.7 23.1 M53.7 23.1C52.5 22.9 51.2 22.7 50.0 22.5 M50.0 22.5C49.2 20.8 48.5 19.1 47.7 17.4 M47.7 17.4C48.6 16.6 49.4 15.8 50.2 15.0 M50.2 15.0C49.2 13.8 48.1 12.6 47.0 11.5 M47.0 11.5C46.0 12.2 45.0 13.0 44.0 13.7 M44.0 13.7C42.2 13.1 40.5 12.4 38.7 11.7 M38.7 11.7C38.6 10.4 38.6 9.1 38.5 7.9 M38.5 7.9C37.0 7.9 35.5 7.9 34.1 7.9 M32.8 6.2C34.9 6.2 37.0 6.0 39.1 6.3 M39.1 6.3C40.4 7.4 40.1 9.3 40.6 10.8 M40.6 10.8C41.8 11.1 42.9 11.5 44.1 11.8 M44.1 11.8C45.1 11.0 46.1 10.3 47.2 9.5 M47.2 9.5C48.8 11.0 50.4 12.4 51.9 14.0 M51.9 14.0C51.5 15.4 50.7 16.5 50.0 17.8 M50.0 17.8C50.4 18.8 50.8 19.9 51.2 21.0 M51.2 21.0C52.5 21.3 53.8 21.6 55.1 22.0 M55.1 22.0C55.6 23.9 55.7 25.9 55.5 27.9 M55.5 27.9C55.2 30.0 52.5 29.2 51.2 29.8 M51.2 29.8C50.7 30.8 50.3 31.8 49.9 32.9 M49.9 32.9C50.6 34.0 51.6 35.0 52.0 36.2 M52.0 36.2C50.6 38.2 48.8 39.8 47.1 41.5 M47.1 41.5C46.0 40.7 44.8 39.9 43.6 39.1 M43.6 39.1C42.5 39.6 41.4 40.1 40.3 40.7 M40.3 40.7C40.2 42.0 40.0 43.3 39.9 44.6 M39.9 44.6C37.5 44.8 35.0 45.2 32.6 44.6 M32.6 44.6C32.2 43.3 32.0 41.9 31.7 40.5 M31.7 40.5C30.7 40.0 29.6 39.5 28.6 39.0 M28.6 39.0C27.5 39.9 26.4 40.7 25.3 41.6 M25.3 41.6C23.6 40.1 21.9 38.5 20.6 36.7 M20.6 36.7C20.9 35.3 21.7 34.2 22.4 33.0 M22.4 33.0C22.1 32.2 21.5 30.6 21.2 29.8 M21.2 29.8C19.8 29.5 18.4 29.2 17.0 28.9 M17.0 28.9C16.9 27.2 16.8 25.6 16.9 23.9 M16.9 23.9C16.5 21.3 19.7 21.6 21.3 20.9 M21.3 20.9C21.6 19.9 22.1 18.9 22.5 17.9 M22.5 17.9C21.8 16.8 21.0 15.7 20.7 14.3 M20.7 14.3C22.1 12.6 23.8 11.1 25.4 9.6 M25.4 9.6C27.3 11.1 29.4 12.1 31.9 10.9 M31.9 10.9C32.2 9.3 32.5 7.8 32.8 6.2" fill="none" stroke="currentColor" stroke-width="2.2" stroke-linecap="round" stroke-linejoin="round"/><path d="M56.5 10.8C59.6 10.6 62.8 10.7 66.0 10.7 M66.0 10.7C66.3 20.3 66.2 30.0 66.1 39.6 M66.1 39.6C62.6 39.9 59.2 39.9 55.7 40.0 M55.7 40.0C55.6 44.2 55.9 48.6 55.6 52.8 M55.6 52.8C54.5 53.9 52.7 53.2 51.5 53.4 M51.5 53.4C36.3 53.2 21.2 53.5 6.1 53.3 M6.1 53.3C6.0 42.1 6.0 30.9 6.1 19.7 M6.1 19.7C9.1 19.6 12.1 19.6 15.2 19.8 M15.2 19.8C13.6 22.4 10.2 20.9 7.7 21.3 M7.7 21.3C7.6 31.4 7.8 41.5 7.8 51.6 M7.8 51.6C23.2 51.7 38.6 51.6 54.0 51.6 M54.0 51.6C54.0 47.2 53.9 42.8 53.9 38.3 M53.9 38.3C57.4 38.2 60.9 38.2 64.4 38.2 M64.4 38.2C64.3 29.6 64.4 21.0 64.3 12.5 M64.3 12.5C61.7 12.0 58.2 13.5 56.5 10.8" fill="none" stroke="currentColor" stroke-width="2.2" stroke-linecap="round" stroke-linejoin="round"/><path d="M33.6 18.1C31.5 18.9 29.7 20.4 28.7 22.3 M28.7 22.3C26.4 27.3 30.7 34.4 36.5 33.8 M36.5 33.8C40.9 33.8 44.7 29.3 44.2 24.9 M44.2 24.9C44.0 19.8 38.2 16.2 33.6 18.1 M33.9 16.4C39.1 15.0 45.4 18.7 45.7 24.3 M45.7 24.3C47.0 30.8 40.1 36.8 33.8 35.2 M33.8 35.2C28.3 34.0 25.1 27.4 27.1 22.2 M27.1 22.2C28.2 19.4 30.9 17.2 33.9 16.4" fill="none" stroke="currentColor" stroke-width="2.2" stroke-linecap="round" stroke-linejoin="round"/><path d="M35.4 27.3C37.3 25.3 39.2 23.3 41.7 21.9 M41.7 21.9C40.9 25.6 37.2 27.4 35.0 30.0 M35.0 30.0C33.6 28.7 32.3 27.1 31.3 25.5 M31.3 25.5C32.8 25.8 34.1 26.5 35.4 27.3" fill="none" stroke="currentColor" stroke-width="2.2" stroke-linecap="round" stroke-linejoin="round"/></svg>