<svg xmlns="http://www.w3.org/2000/svg" viewBox="0 0 72.0 68.9" width="24" height="24" role="img" aria-label="lock-card"><path d="M41.4 14.1C45.3 13.8 49.2 13.9 53.1 14.3 M53.1 14.3C51.3 16.8 47.9 15.4 45.3 15.8 M45.3 15.8C43.9 15.4 40.8 16.6 41.4 14.1" fill="none" stroke="currentColor" stroke-width="2.2" stroke-linecap="round" stroke-linejoin="round"/><path d="M43.1 30.1C45.1 28.3 47.9 28.8 50.4 28.9 M50.4 28.9C51.4 28.9 53.3 29.0 52.6 30.5 M52.6 30.5C49.4 30.9 46.2 30.8 43.1 30.1" fill="none" stroke="currentColor" stroke-width="2.2" stroke-linecap="round" stroke-linejoin="round"/><path d="M56.1 16.0C54.7 17.8 57.1 20.4 58.9 18.6 M58.9 18.6C60.3 16.9 57.9 14.7 56.1 16.0 M55.5 14.5C57.5 13.0 60.8 14.6 60.8 17.1 M60.8 17.1C61.0 19.5 58.0 22.0 55.8 20.4 M55.8 20.4C53.7 19.2 53.5 15.9 55.5 14.5" fill="none" stroke="currentColor" stroke-width="2.2" stroke-linecap="round" stroke-linejoin="round"/><path d="M47.2 35.6C47.2 33.2 52.1 32.9 52.4 35.3 M52.4 35.3C50.7 35.6 48.9 35.6 47.2 35.6" fill="none" stroke="currentColor" stroke-width="2.2" stroke-linecap="round" stroke-linejoin="round"/><path d="M21.7 42.1C21.0 44.3 22.7 46.1 24.0 47.6 M24.0 47.6C23.6 49.7 23.2 51.7 22.7 53.8 M22.7 53.8C24.5 53.8 26.3 53.8 28.1 53.8 M28.1 53.8C27.7 51.8 27.3 49.7 26.9 47.7 M26.9 47.7C28.2 45.9 30.4 43.9 28.9 41.6 M28.9 41.6C27.7 38.3 22.6 38.9 21.7 42.1 M20.3 41.2C21.8 36.8 28.8 36.6 30.5 41.0 M30.5 41.0C31.9 43.4 30.4 46.1 28.8 48.0 M28.8 48.0C29.2 50.4 29.8 52.9 30.2 55.4 M30.2 55.4C27.0 55.5 23.8 55.5 20.5 55.4 M20.5 55.4C21.0 53.0 21.8 50.6 22.0 48.2 M22.0 48.2C20.9 46.0 18.9 43.7 20.3 41.2" fill="none" stroke="currentColor" stroke-width="2.2" stroke-linecap="round" stroke-linejoin="round"/><path d="M10.8 32.7C8.4 33.2 7.7 36.0 7.9 38.1 M7.9 38.1C8.0 44.8 7.9 51.5 8.2 58.2 M8.2 58.2C8.4 60.1 10.4 61.1 12.2 60.9 M12.2 60.9C21.2 60.9 30.3 60.9 39.4 60.9 M39.4 60.9C41.4 61.1 43.3 59.3 43.0 57.2 M43.0 57.2C43.1 50.5 43.1 43.7 43.0 37.0 M43.0 37.0C43.3 34.8 41.6 32.4 39.2 32.6 M39.2 32.6C29.7 32.5 20.2 32.4 10.8 32.7 M18.5 21.0C18.2 24.2 18.4 27.5 18.4 30.8 M18.4 30.8C23.2 30.8 27.9 30.8 32.7 30.8 M32.7 30.8C32.2 26.3 34.1 20.7 30.3 17.2 M30.3 17.2C26.6 13.5 19.5 15.9 18.5 21.0 M15.7 14.5C11.7 19.0 13.0 25.4 12.8 30.8 M12.8 30.8C13.8 30.8 15.7 30.8 16.7 30.8 M16.7 30.8C16.9 26.5 15.6 21.7 18.1 17.8 M18.1 17.8C20.8 13.4 27.6 12.1 31.4 16.0 M31.4 16.0C35.9 19.6 34.0 25.9 34.4 30.8 M34.4 30.8C35.8 30.9 37.1 30.9 38.4 30.9 M38.4 30.9C38.2 25.3 39.5 18.6 35.2 14.2 M35.2 14.2C30.4 8.2 20.3 8.5 15.7 14.5 M14.5 13.2C20.3 6.0 32.9 6.6 37.7 14.7 M37.7 14.7C41.0 19.2 40.0 25.0 40.2 30.3 M40.2 30.3C41.9 31.7 44.4 32.7 44.6 35.2 M44.6 35.2C45.0 42.4 44.8 49.7 44.8 57.0 M44.8 57.0C44.9 60.0 42.4 62.9 39.3 62.5 M39.3 62.5C30.0 62.6 20.6 62.6 11.3 62.6 M11.3 62.6C8.5 62.7 6.2 59.9 6.4 57.2 M6.4 57.2C6.3 50.1 6.0 43.1 6.4 36.0 M6.4 36.0C6.4 33.3 8.9 31.7 11.1 30.6 M11.1 30.6C11.1 24.8 10.0 17.9 14.5 13.2" fill="none" stroke="currentColor" stroke-width="2.2" stroke-linecap="round" stroke-linejoin="round"/><path d="M56.3 46.4C54.7 47.8 57.3 50.0 58.6 48.5 M58.6 48.5C60.0 47.1 57.6 45.0 56.3 46.4 M55.6 44.6C59.1 42.2 62.9 47.8 59.4 50.2 M59.4 50.2C55.9 53.2 51.7 46.8 55.6 44.6" fill="none" stroke="currentColor" stroke-width="2.2" stroke-linecap="round" stroke-linejoin="round"/><path d="M37.1 9.3C44.9 9.0 52.6 9.2 60.3 9.2 M60.3 9.2C63.0 8.9 65.3 11.4 65.0 14.1 M65.0 14.1C64.7 17.6 66.0 21.6 63.8 24.7 M63.8 24.7C64.8 26.4 65.2 28.2 65.1 30.1 M65.1 30.1C64.9 33.4 65.6 36.8 64.1 39.9 M64.1 39.9C65.6 43.5 64.9 47.4 65.0 51.2 M65.0 51.2C65.4 53.8 63.0 56.4 60.3 56.2 M60.3 56.2C55.5 56.3 50.6 56.3 45.7 56.1 M45.7 56.1C46.0 55.8 46.6 55.0 46.9 54.6 M46.9 54.6C51.3 54.2 55.8 54.6 60.3 54.5 M60.3 54.5C61.6 54.6 63.3 53.6 63.2 52.2 M63.2 52.2C63.3 48.7 63.2 45.3 63.1 41.9 M63.1 41.9C57.5 40.2 51.6 42.0 45.9 40.7 M45.9 40.7C50.9 37.4 57.8 41.3 63.2 38.3 M63.2 38.3C63.1 34.6 63.4 30.9 63.0 27.3 M63.0 27.3C62.8 27.0 62.3 26.5 62.1 26.3 M62.1 26.3C55.3 25.3 48.4 26.3 41.6 25.9 M41.6 25.9C41.8 25.5 42.3 24.8 42.6 24.4 M42.6 24.4C48.5 23.8 54.5 24.4 60.5 24.0 M60.5 24.0C61.4 24.0 62.3 23.6 63.1 23.0 M63.1 23.0C63.3 19.5 63.3 15.9 63.0 12.4 M63.0 12.4C62.6 10.8 60.6 10.8 59.3 10.8 M59.3 10.8C51.9 10.7 44.5 11.0 37.0 10.9 M37.0 10.9C37.1 10.5 37.1 9.7 37.1 9.3" fill="none" stroke="currentColor" stroke-width="2.2" stroke-linecap="round" stroke-linejoin="round"/><path d="M42.9 19.4C46.1 19.2 49.4 19.3 52.6 19.6 M52.6 19.6C52.3 20.0 51.6 20.8 51.3 21.1 M51.3 21.1C48.1 21.4 45.0 21.2 41.9 21.1 M41.9 21.1C42.1 20.7 42.6 19.8 42.9 19.4" fill="none" stroke="currentColor" stroke-width="2.2" stroke-linecap="round" stroke-linejoin="round"/><path d="M46.8 44.5C48.7 44.4 52.3 42.7 52.5 45.9 M52.5 45.9C50.5 45.7 48.2 46.3 46.8 44.5" fill="none" stroke="currentColor" stroke-width="2.2" stroke-linecap="round" stroke-linejoin="round"/><path d="M47.1 50.8C47.5 47.9 50.8 49.2 52.7 49.4 M52.7 49.4C51.3 51.1 49.0 50.9 47.1 50.8" fill="none" stroke="currentColor" stroke-width="2.2" stroke-linecap="round" stroke-linejoin="round"/></svg>